# 3ds Max Wavefront OBJ Exporter v0.97b - (c)2007 guruware
# File Created: 30.05.2016 20:12:02

mtllib walls.mtl

#
# object Box003
#

v  -3.6720 -0.0088 17.3173
v  10.6005 -0.0088 17.3173
v  10.6005 -0.0088 6.8783
v  -3.6720 -0.0088 6.8783
v  -3.6720 -1.5275 17.3173
v  -3.6720 -1.5275 6.8783
v  10.6005 -1.5275 6.8783
v  10.6005 -1.5275 17.3173
# 8 vertices

vn -0.0000 1.0000 -0.0000
vn 0.0000 -1.0000 -0.0000
vn -0.0000 0.0000 1.0000
vn 1.0000 -0.0000 -0.0000
vn -0.0000 0.0000 -1.0000
vn -1.0000 0.0000 -0.0000
# 6 vertex normals

vt 0.0000 0.0000 0.5951
vt 1.0000 0.0000 0.5951
vt 1.0000 1.0000 0.5951
vt 0.0000 1.0000 0.5951
vt 1.0000 0.0000 0.4983
vt 1.0000 1.0000 0.4983
vt 0.0000 1.0000 0.4983
vt 0.0000 -0.0000 0.4983
vt 0.0000 0.5951 0.0000
vt 0.0000 0.4983 0.0000
vt 1.0000 0.4983 -0.0000
vt 1.0000 0.5951 0.0000
vt 0.0000 0.5951 1.0000
vt -0.0000 0.4983 1.0000
vt 1.0000 0.4983 1.0000
vt 1.0000 0.5951 1.0000
vt 0.0000 0.4983 1.0000
vt -0.0000 0.4983 0.0000
vt 1.0000 0.4983 0.0000
# 19 texture coords

g Box003
usemtl Material__44
s 2
f 1/1/1 2/2/1 3/3/1 4/4/1 
s 4
f 5/5/2 6/6/2 7/7/2 8/8/2 
s 8
f 1/9/3 5/10/3 8/11/3 2/12/3 
s 16
f 2/13/4 8/14/4 7/15/4 3/16/4 
s 32
f 3/13/5 7/17/5 6/15/5 4/16/5 
s 64
f 4/9/6 6/18/6 5/19/6 1/12/6 
# 6 polygons

#
# object Box008
#

v  -3.6720 -0.0088 17.3173
v  -3.6720 22.1945 17.3173
v  10.6005 22.1945 17.3173
v  10.6005 -0.0088 17.3173
v  10.6005 22.1945 -15.9209
v  10.6005 -0.0088 -15.9209
v  -3.6720 22.1945 -15.9209
v  -3.6720 -0.0088 -15.9209
# 8 vertices

vn 0.0000 0.0000 -1.0000
vn -1.0000 -0.0000 -0.0000
vn 0.0000 0.0000 1.0000
vn 1.0000 0.0000 -0.0000
# 4 vertex normals

vt -0.4843 -1.4160 -2.9049
vt -0.4843 2.0143 -2.9049
vt 1.4843 2.0143 -2.9049
vt 1.4843 -1.4160 -2.9049
vt -2.9049 -1.4160 1.4843
vt -2.9049 2.0143 1.4843
vt 3.5210 2.0143 1.4843
vt 3.5210 -1.4160 1.4843
vt -0.4843 -1.4160 3.5210
vt -0.4843 2.0143 3.5210
vt 1.4843 2.0143 3.5210
vt 1.4843 -1.4160 3.5210
vt -2.5210 -1.4160 -0.4843
vt -2.5210 2.0143 -0.4843
vt 3.9049 2.0143 -0.4843
vt 3.9049 -1.4160 -0.4843
# 16 texture coords

g Box008
usemtl Material__44
s 8
f 9/20/7 10/21/7 11/22/7 12/23/7 
s 16
f 12/24/8 11/25/8 13/26/8 14/27/8 
s 32
f 14/28/9 13/29/9 15/30/9 16/31/9 
s 64
f 16/32/10 15/33/10 10/34/10 9/35/10 
# 4 polygons

